<?xml version="1.0" encoding="UTF-8"?>
<svg width="88px" height="28px" viewBox="0 0 88 28" version="1.1" xmlns="http://www.w3.org/2000/svg" xmlns:xlink="http://www.w3.org/1999/xlink">
    <!-- Generator: Sketch 52.3 (67297) - http://www.bohemiancoding.com/sketch -->
    <title>资源 13</title>
    <desc>Created with Sketch.</desc>
    <defs>
        <linearGradient x1="99.9541919%" y1="50.1845018%" x2="3.12727759e-16%" y2="50.1845018%" id="linearGradient-1">
            <stop stop-color="#FFFFFF" offset="0%"></stop>
            <stop stop-color="#FDFCFF" offset="28%"></stop>
            <stop stop-color="#F8F4FF" offset="45%"></stop>
            <stop stop-color="#EEE6FF" offset="59%"></stop>
            <stop stop-color="#E0D1FF" offset="72%"></stop>
            <stop stop-color="#CFB7FF" offset="83%"></stop>
            <stop stop-color="#B997FF" offset="93%"></stop>
            <stop stop-color="#AA81FF" offset="100%"></stop>
        </linearGradient>
        <linearGradient x1="49.9061914%" y1="32%" x2="49.9061914%" y2="67%" id="linearGradient-2">
            <stop stop-color="#FFFFFF" offset="0%"></stop>
            <stop stop-color="#F9F6FF" offset="78%"></stop>
            <stop stop-color="#F6F2FF" offset="99%"></stop>
        </linearGradient>
        <linearGradient x1="50.0513497%" y1="-0.0167524036%" x2="50.0513497%" y2="100.118644%" id="linearGradient-3">
            <stop stop-color="#FFFFFF" offset="0%"></stop>
            <stop stop-color="#F9F6FF" offset="78%"></stop>
            <stop stop-color="#F6F2FF" offset="99%"></stop>
        </linearGradient>
        <linearGradient x1="100.016197%" y1="49.9553099%" x2="-0.0505662183%" y2="49.9553099%" id="linearGradient-4">
            <stop stop-color="#FFFFFF" offset="0%"></stop>
            <stop stop-color="#F9F6FF" offset="35%"></stop>
            <stop stop-color="#E7DCFF" offset="93%"></stop>
            <stop stop-color="#E5D9FF" offset="99%"></stop>
        </linearGradient>
    </defs>
    <g id="2018-11-08" stroke="none" stroke-width="1" fill="none" fill-rule="evenodd">
        <g id="首页" transform="translate(-40.000000, -21.000000)">
            <g id="资源-13" transform="translate(40.000000, 21.000000)">
                <path d="M18.184375,0.1375 L1.997875,0.1375 L1.912625,0.1375 L1.887875,0.1375 L1.8205,0.1375 L1.802625,0.1375 L1.720125,0.1485 L1.700875,0.1485 L1.63625,0.17325 L1.612875,0.17325 L1.5345,0.191125 L1.52625,0.191125 L1.456125,0.21725 L1.43,0.2255 L1.375,0.24475 L1.353,0.253 L1.2815,0.275 L1.25675,0.286 L1.20725,0.308 L1.17975,0.32175 C1.16041925,0.330284058 1.14159638,0.339925041 1.123375,0.350625 L1.1,0.372625 L1.054625,0.39875 L1.0175,0.4125 L0.979,0.43725 L0.950125,0.4565 L0.895125,0.496375 L0.8635,0.51975 L0.834625,0.55 L0.801625,0.576125 L0.774125,0.5995 L0.7205,0.649 C0.7205,0.649 0.705375,0.66275 0.6985,0.671 L0.6655,0.702625 L0.64625,0.72325 C0.622416667,0.748 0.600416667,0.77275 0.58025,0.7975 C0.58025,0.7975 0.58025,0.7975 0.573375,0.7975 L0.54175,0.836 L0.526625,0.856625 C0.51578148,0.869322467 0.505681287,0.882636357 0.496375,0.8965 L0.488125,0.906125 C0.468875,0.933625 0.449625,0.9625 0.43175,0.991375 L0.42075,1.007875 L0.39325,1.051875 C0.39325,1.05875 0.386375,1.06425 0.383625,1.06975 L0.375375,1.0835 L4.351875,3.35225 L3.67125,3.35225 L5.132875,4.225375 C5.08907591,4.15685177 5.06614519,4.07707196 5.066875,3.99575 C5.06664516,3.76462074 5.24847547,3.57430502 5.479375,3.564 L18.04,3.564 C18.084,3.564 18.129375,3.564 18.1775,3.564 C19.1267394,3.56665786 19.8984046,2.7993019 19.9010625,1.8500625 C19.9037203,0.900823096 19.1363644,0.129157884 18.187125,0.1265 L18.184375,0.1375 Z" id="Path" fill="url(#linearGradient-1)"></path>
                <path d="M7.27925,0.1925 C7.5185,0.154 7.671125,0.14575 7.671125,0.14575 L6.93825,0.14575 C7.05291108,0.152932253 7.16688664,0.168557936 7.27925,0.1925 Z" id="Path" fill="url(#linearGradient-2)"></path>
                <path d="M24.135375,10.500875 C23.5080425,10.5005028 22.9305878,10.8427568 22.62975,11.39325 L16.30475,22.34375 C16.2296342,22.4717921 16.0941766,22.5524448 15.9458122,22.5574646 C15.7974479,22.5624845 15.6568486,22.4911721 15.57325,22.3685 L11.556875,15.411 C11.5237215,15.3316397 11.4846532,15.2548821 11.44,15.181375 L4.7575,3.575 C4.37451066,2.88015865 4.3737046,2.03766109 4.75536365,1.34208816 C5.1370227,0.646515232 5.84806565,0.194607369 6.639875,0.144375 L2.102375,0.144375 C1.81839959,0.135849338 1.53622705,0.192283846 1.277375,0.309375 L1.269125,0.309375 C1.23475,0.3245 1.20175,0.341 1.16875,0.358875 L1.12475,0.38225 L1.1,0.394625 C1.079375,0.407 1.05875,0.419375 1.0395,0.433125 L1.007875,0.452375 L0.974875,0.47575 L0.941875,0.499125 L0.9075,0.52525 L0.86075,0.562375 L0.836,0.583 L0.793375,0.61875 L0.776875,0.63525 L0.724625,0.6875 L0.70675,0.70675 L0.66,0.75625 L0.65175,0.765875 C0.633875,0.785125 0.616,0.80575 0.5995,0.826375 L0.58575,0.84425 L0.539,0.906125 L0.49225,0.974875 L0.48125,0.99275 L0.435875,1.065625 L0.4125,1.1 L0.37675,1.079375 C0.0459068377,1.66395849 0.056421884,2.38161041 0.40425,2.95625 L0.56925,3.24225 L14.290375,27.00775 C14.4236973,27.2569585 14.6117351,27.4727319 14.840375,27.638875 L14.848625,27.638875 C14.878875,27.660875 14.909125,27.6815 14.94075,27.70075 L14.983375,27.7255 L15.005375,27.73925 L15.068625,27.773625 L15.10025,27.790125 L15.137375,27.806625 L15.1745,27.8245 L15.214375,27.841 L15.269375,27.863 L15.299625,27.874 L15.35325,27.891875 L15.37525,27.89875 L15.44675,27.919375 L15.4715,27.919375 L15.538875,27.9345 L15.55125,27.9345 L15.629625,27.94825 L15.651625,27.94825 C15.6771045,27.9528108 15.7028069,27.9560236 15.728625,27.957875 L15.811125,27.957875 L15.833125,27.957875 L15.917,27.957875 L15.932125,27.957875 L16.00225,27.957875 L16.02425,27.957875 L16.104,27.957875 L16.1865,27.946875 L16.2085,27.946875 L16.28,27.933125 L16.291,27.933125 L16.368,27.91525 L16.391375,27.91525 L16.45325,27.89875 L16.471125,27.89875 L16.54125,27.875375 L16.56875,27.864375 L16.619625,27.845125 L16.643,27.8355 L16.70625,27.806625 L16.737875,27.7915 L16.77775,27.770875 L16.819,27.748875 L16.864375,27.72275 L16.89875,27.70075 L16.927625,27.682875 L16.993625,27.6375 L17.0115,27.625125 L17.05,27.594875 L17.067875,27.581125 C17.1105,27.548125 17.150375,27.512375 17.19025,27.47525 L17.199875,27.467 C17.241125,27.427125 17.279625,27.385875 17.31675,27.34325 C17.35525,27.29925 17.391,27.2525 17.425375,27.20575 C17.4603225,27.1572142 17.4924586,27.1067147 17.521625,27.0545 L17.890125,26.417875 L17.969875,26.280375 L25.564,13.1285 C25.8949917,12.5995378 25.9127623,11.9325933 25.6104083,11.3867558 C25.3080543,10.8409183 24.7332344,10.5022254 24.10925,10.50225 L24.135375,10.500875 Z" id="Path" fill="url(#linearGradient-3)"></path>
                <path d="M29.863625,0.1375 L23.401125,0.1375 C22.4518856,0.1375 21.682375,0.907010586 21.682375,1.85625 C21.682375,2.80548941 22.4518856,3.575 23.401125,3.575 C23.4465,3.575 23.4905,3.575 23.538625,3.575 L26.467375,3.575 C26.6819894,3.60396592 26.8419415,3.78744043 26.841375,4.004 C26.8410031,4.0509072 26.8326331,4.09740732 26.816625,4.1415 L25.26425,6.8145 C24.9695059,7.35314487 24.9845147,8.00811737 25.3036228,8.5326957 C25.6227308,9.05727403 26.1974581,9.37176226 26.8113103,9.35769571 C27.4251625,9.34362917 27.9848809,9.00314488 28.279625,8.4645 L31.475125,2.92875 C31.5051474,2.87857008 31.5322346,2.82669133 31.55625,2.773375 L31.55625,2.7665 C31.571375,2.7335 31.5865,2.699125 31.598875,2.66475 L31.625,2.6125 L31.63325,2.58775 C31.6415,2.56575 31.648375,2.542375 31.65525,2.520375 C31.662125,2.498375 31.65525,2.49425 31.66625,2.481875 C31.6688117,2.46934132 31.6720244,2.45694954 31.675875,2.44475 C31.675875,2.42825 31.675875,2.41175 31.686875,2.396625 C31.697875,2.3815 31.686875,2.37325 31.69375,2.36225 L31.706125,2.29625 L31.706125,2.26875 L31.714375,2.19725 C31.714375,2.19725 31.714375,2.190375 31.714375,2.187625 C31.714375,2.160125 31.714375,2.132625 31.714375,2.105125 L31.714375,2.0845 C31.714375,2.055625 31.714375,2.028125 31.714375,1.99925 C31.7151457,0.975003994 30.8878576,0.142798841 29.863625,0.1375 Z" id="Path" fill="#FFFFFF"></path>
                <path d="M20.04475,8.27475 C19.8934568,8.01779391 19.6169338,7.86067859 19.31875,7.86225 L12.99375,7.86225 C12.6955662,7.86067859 12.4190432,8.01779391 12.26775,8.27475 C12.1173113,8.53360468 12.1173113,8.85327032 12.26775,9.112125 L15.43025,14.59425 C15.5798,14.8534563 15.8563083,15.0131532 16.1555625,15.0131532 C16.4548167,15.0131532 16.731325,14.8534563 16.880875,14.59425 L20.043375,9.112125 C20.1938137,8.85327032 20.1938137,8.53360468 20.043375,8.27475 L20.04475,8.27475 Z" id="Path" fill="url(#linearGradient-4)"></path>
                <path d="M46.53275,8.1125 C46.3279102,7.5994376 45.8311922,7.26290863 45.27875,7.26290863 C44.7263078,7.26290863 44.2295898,7.5994376 44.02475,8.1125 L38.611375,21.800625 C38.8145798,22.289473 39.2919748,22.6080262 39.821375,22.6080262 C40.3507752,22.6080262 40.8281702,22.289473 41.031375,21.800625 L42.406375,18.101875 L48.11125,18.101875 L49.48625,21.800625 C49.6865375,22.3049372 50.1742463,22.6360076 50.716875,22.6360076 C51.2595037,22.6360076 51.7472125,22.3049372 51.9475,21.800625 L46.53275,8.1125 Z M42.989375,16.394125 L45.22375,10.39225 L45.285625,10.39225 L47.52,16.396875 L42.989375,16.394125 Z" id="Shape" fill="#FFFFFF" fill-rule="nonzero"></path>
                <path d="M60.168625,11.38775 C58.422375,11.38775 57.18625,12.024375 56.500125,13.2385 L56.458875,13.2385 L56.458875,11.501875 L54.3125,11.501875 L54.3125,21.803375 C54.4483694,22.3141331 54.9107916,22.6696258 55.4393125,22.6696258 C55.9678334,22.6696258 56.4302556,22.3141331 56.566125,21.803375 L56.566125,15.8565 C56.566125,14.234 57.688125,13.15325 59.39175,13.15325 C61.04175,13.15325 61.936875,14.025 61.936875,15.58975 L61.936875,21.803375 C62.0718221,22.3154107 62.5348551,22.6722223 63.064375,22.6722223 C63.5938949,22.6722223 64.0569279,22.3154107 64.191875,21.803375 L64.191875,15.203375 C64.189125,12.830125 62.6615,11.38775 60.168625,11.38775 Z" id="Path" fill="#FFFFFF"></path>
                <path d="M55.385,10.747 C54.9023889,10.7335425 54.4674115,11.0363538 54.3125,11.493625 L56.452,11.493625 C56.2976917,11.0383334 55.8656039,10.7359833 55.385,10.747 Z" id="Path" fill="#FFFFFF"></path>
                <path d="M72.587625,20.882125 C72.441875,20.901375 72.056875,20.928875 71.817625,20.928875 C70.873,20.928875 70.442625,20.516375 70.442625,19.619875 L70.442625,13.858625 L72.6,13.858625 C72.8677377,13.6766175 73.0280084,13.3738691 73.0280084,13.050125 C73.0280084,12.7263809 72.8677377,12.4236325 72.6,12.241625 L72.6,12.2375 L70.43575,12.2375 L70.43575,9.922 L70.4275,9.922 C70.2088775,9.50718103 69.7785286,9.24753001 69.309625,9.24753001 C68.8407214,9.24753001 68.4103725,9.50718103 68.19175,9.922 L68.19175,12.2375 L66.633875,12.2375 L66.633875,12.252625 C66.3696271,12.4351588 66.2118861,12.7358372 66.2118861,13.057 C66.2118861,13.3781628 66.3696271,13.6788412 66.633875,13.861375 L68.19175,13.861375 L68.19175,19.8275 C68.19175,21.819875 69.064875,22.606375 71.319875,22.606375 C71.7447797,22.6107949 72.1691792,22.5758118 72.587625,22.501875 C72.8513022,22.3174067 73.0083553,22.0158609 73.0083553,21.6940625 C73.0083553,21.3722641 72.8513022,21.0707183 72.587625,20.88625 L72.587625,20.882125 Z" id="Path" fill="#FFFFFF"></path>
                <path d="M87.935375,7.748125 C87.7354442,7.23936538 87.2445089,6.90480895 86.697875,6.90480895 C86.1512411,6.90480895 85.6603058,7.23936538 85.460375,7.748125 L81.35875,19.0465 L81.296875,19.0465 L77.213125,7.748125 L77.221375,7.748125 C77.0124104,7.23396707 76.5127496,6.89768888 75.95775,6.89768888 C75.4027504,6.89768888 74.9030896,7.23396707 74.694125,7.748125 L80.03875,21.43625 C80.1817808,22.024918 80.7089548,22.4393407 81.31475,22.4393407 C81.9205452,22.4393407 82.4477192,22.024918 82.59075,21.43625 L87.935375,7.748125 Z" id="Path" fill="#FFFFFF"></path>
            </g>
        </g>
    </g>
</svg>