<?xml version="1.0" encoding="UTF-8"?>
<svg width="20px" height="18px" viewBox="0 0 20 18" version="1.1" xmlns="http://www.w3.org/2000/svg" xmlns:xlink="http://www.w3.org/1999/xlink">
    <!-- Generator: Sketch 52.3 (67297) - http://www.bohemiancoding.com/sketch -->
    <title>资源 13</title>
    <desc>Created with Sketch.</desc>
    <defs>
        <linearGradient x1="99.9541919%" y1="50.1845018%" x2="3.12727759e-16%" y2="50.1845018%" id="linearGradient-1">
            <stop stop-color="#FFFFFF" offset="0%"></stop>
            <stop stop-color="#FDFCFF" offset="28%"></stop>
            <stop stop-color="#F8F4FF" offset="45%"></stop>
            <stop stop-color="#EEE6FF" offset="59%"></stop>
            <stop stop-color="#E0D1FF" offset="72%"></stop>
            <stop stop-color="#CFB7FF" offset="83%"></stop>
            <stop stop-color="#B997FF" offset="93%"></stop>
            <stop stop-color="#AA81FF" offset="100%"></stop>
        </linearGradient>
        <linearGradient x1="49.9061914%" y1="32%" x2="49.9061914%" y2="67%" id="linearGradient-2">
            <stop stop-color="#FFFFFF" offset="0%"></stop>
            <stop stop-color="#F9F6FF" offset="78%"></stop>
            <stop stop-color="#F6F2FF" offset="99%"></stop>
        </linearGradient>
        <linearGradient x1="50.0513497%" y1="-0.0167524036%" x2="50.0513497%" y2="100.118644%" id="linearGradient-3">
            <stop stop-color="#FFFFFF" offset="0%"></stop>
            <stop stop-color="#F9F6FF" offset="78%"></stop>
            <stop stop-color="#F6F2FF" offset="99%"></stop>
        </linearGradient>
        <linearGradient x1="100.016197%" y1="49.9553099%" x2="-0.0505662183%" y2="49.9553099%" id="linearGradient-4">
            <stop stop-color="#FFFFFF" offset="0%"></stop>
            <stop stop-color="#F9F6FF" offset="35%"></stop>
            <stop stop-color="#E7DCFF" offset="93%"></stop>
            <stop stop-color="#E5D9FF" offset="99%"></stop>
        </linearGradient>
    </defs>
    <g id="2018-11-08" stroke="none" stroke-width="1" fill="none" fill-rule="evenodd">
        <g id="首页" transform="translate(-710.000000, -615.000000)">
            <g id="资源-13" transform="translate(710.000000, 615.000000)">
                <path d="M11.3652344,0.0859375 L1.24867188,0.0859375 L1.19539063,0.0859375 L1.17992188,0.0859375 L1.1378125,0.0859375 L1.12664063,0.0859375 L1.07507813,0.0928125 L1.06304688,0.0928125 L1.02265625,0.10828125 L1.00804688,0.10828125 L0.9590625,0.119453125 L0.95390625,0.119453125 L0.910078125,0.13578125 L0.89375,0.1409375 L0.859375,0.15296875 L0.845625,0.158125 L0.8009375,0.171875 L0.78546875,0.17875 L0.75453125,0.1925 L0.73734375,0.20109375 C0.725262034,0.206427537 0.713497739,0.212453151 0.702109375,0.219140625 L0.6875,0.232890625 L0.659140625,0.24921875 L0.6359375,0.2578125 L0.611875,0.27328125 L0.593828125,0.2853125 L0.559453125,0.310234375 L0.5396875,0.32484375 L0.521640625,0.34375 L0.501015625,0.360078125 L0.483828125,0.3746875 L0.4503125,0.405625 C0.4503125,0.405625 0.440859375,0.41421875 0.4365625,0.419375 L0.4159375,0.439140625 L0.40390625,0.45203125 C0.389010417,0.4675 0.375260417,0.48296875 0.36265625,0.4984375 C0.36265625,0.4984375 0.36265625,0.4984375 0.358359375,0.4984375 L0.33859375,0.5225 L0.329140625,0.535390625 C0.322363425,0.543326542 0.316050805,0.551647723 0.310234375,0.5603125 L0.305078125,0.566328125 C0.293046875,0.583515625 0.281015625,0.6015625 0.26984375,0.619609375 L0.26296875,0.629921875 L0.24578125,0.657421875 C0.24578125,0.66171875 0.241484375,0.66515625 0.239765625,0.66859375 L0.234609375,0.6771875 L2.71992188,2.09515625 L2.29453125,2.09515625 L3.20804688,2.64085938 C3.18067245,2.59803235 3.16634074,2.54816997 3.16679688,2.49734375 C3.16665322,2.35288797 3.28029717,2.23394064 3.42460938,2.2275 L11.275,2.2275 C11.3025,2.2275 11.3308594,2.2275 11.3609375,2.2275 C11.9542121,2.22916116 12.4365029,1.74956369 12.438164,1.15628906 C12.4398252,0.563014435 11.9602278,0.0807236778 11.3669531,0.0790625 L11.3652344,0.0859375 Z" id="Path" fill="url(#linearGradient-1)"></path>
                <path d="M4.54953125,0.129734375 C4.6990625,0.101734375 4.79445313,0.095734375 4.79445313,0.095734375 L4.33640625,0.095734375 C4.40806942,0.100957832 4.47930415,0.112321965 4.54953125,0.129734375 Z" id="Path" fill="url(#linearGradient-2)"></path>
                <path d="M15.0846094,6.56304688 C14.6925266,6.56281425 14.3316174,6.776723 14.1435938,7.12078125 L10.1904688,13.9648438 C10.1435214,14.0448701 10.0588603,14.095278 9.96613265,14.0984154 C9.87340496,14.1015528 9.78553037,14.0569826 9.73328125,13.9803125 L7.22304688,9.631875 C7.20232594,9.58227484 7.17790827,9.53430131 7.15,9.48835938 L2.9734375,2.234375 C2.73406916,1.80009916 2.73356537,1.27353818 2.97210228,0.838805101 C3.21063919,0.40407202 3.65504103,0.121629605 4.14992188,0.090234375 L1.31398437,0.090234375 C1.13649974,0.0849058365 0.960141906,0.120177404 0.798359375,0.193359375 L0.793203125,0.193359375 C0.77171875,0.2028125 0.75109375,0.213125 0.73046875,0.224296875 L0.70296875,0.23890625 L0.6875,0.246640625 C0.674609375,0.254375 0.66171875,0.262109375 0.6496875,0.270703125 L0.629921875,0.282734375 L0.609296875,0.29734375 L0.588671875,0.311953125 L0.5671875,0.32828125 L0.53796875,0.351484375 L0.5225,0.364375 L0.495859375,0.38671875 L0.485546875,0.39703125 L0.452890625,0.4296875 L0.44171875,0.44171875 L0.4125,0.47265625 L0.40734375,0.478671875 C0.396171875,0.490703125 0.385,0.50359375 0.3746875,0.516484375 L0.36609375,0.52765625 L0.336875,0.566328125 L0.30765625,0.609296875 L0.30078125,0.62046875 L0.272421875,0.666015625 L0.2578125,0.6875 L0.23546875,0.674609375 C0.0286917735,1.03997406 0.0352636775,1.4885065 0.25265625,1.84765625 L0.35578125,2.02640625 L8.93148438,16.8798438 C9.01481083,17.0355991 9.13233445,17.1704574 9.27523438,17.2742969 L9.28039063,17.2742969 C9.29929688,17.2880469 9.31820313,17.3009375 9.33796875,17.3129688 L9.36460938,17.3284375 L9.37835938,17.3370313 L9.41789063,17.3585156 L9.43765625,17.3688281 L9.46085938,17.3791406 L9.4840625,17.3903125 L9.50898438,17.400625 L9.54335938,17.414375 L9.56226563,17.42125 L9.59578125,17.4324219 L9.60953125,17.4367188 L9.65421875,17.4496094 L9.6696875,17.4496094 L9.71179688,17.4590625 L9.71953125,17.4590625 L9.76851563,17.4676563 L9.78226563,17.4676563 C9.79819028,17.4705067 9.81425429,17.4725147 9.83039063,17.4736719 L9.88195313,17.4736719 L9.89570313,17.4736719 L9.948125,17.4736719 L9.95757813,17.4736719 L10.0014063,17.4736719 L10.0151563,17.4736719 L10.065,17.4736719 L10.1165625,17.4667969 L10.1303125,17.4667969 L10.175,17.4582031 L10.181875,17.4582031 L10.23,17.4470313 L10.2446094,17.4470313 L10.2832813,17.4367188 L10.2944531,17.4367188 L10.3382813,17.4221094 L10.3554688,17.4152344 L10.3872656,17.4032031 L10.401875,17.3971875 L10.4414063,17.3791406 L10.4611719,17.3696875 L10.4860938,17.3567969 L10.511875,17.3430469 L10.5402344,17.3267188 L10.5617188,17.3129688 L10.5797656,17.3017969 L10.6210156,17.2734375 L10.6321875,17.2657031 L10.65625,17.2467969 L10.6674219,17.2382031 C10.6940625,17.2175781 10.7189844,17.1952344 10.7439063,17.1720313 L10.7499219,17.166875 C10.7757031,17.1419531 10.7997656,17.1161719 10.8229688,17.0895313 C10.8470313,17.0620313 10.869375,17.0328125 10.8908594,17.0035938 C10.9127016,16.9732589 10.9327866,16.9416967 10.9510156,16.9090625 L11.1813281,16.5111719 L11.2311719,16.4252344 L15.9775,8.2053125 C16.1843698,7.87471114 16.1954764,7.45787079 16.0065052,7.11672236 C15.817534,6.77557392 15.4582715,6.56389089 15.0682813,6.56390625 L15.0846094,6.56304688 Z" id="Path" fill="url(#linearGradient-3)"></path>
                <path d="M18.6647656,0.0859375 L14.6257031,0.0859375 C14.0324285,0.0859375 13.5514844,0.566881616 13.5514844,1.16015625 C13.5514844,1.75343088 14.0324285,2.234375 14.6257031,2.234375 C14.6540625,2.234375 14.6815625,2.234375 14.7116406,2.234375 L16.5421094,2.234375 C16.6762434,2.2524787 16.7762135,2.36715027 16.7758594,2.5025 C16.775627,2.531817 16.7703957,2.56087958 16.7603906,2.5884375 L15.7901563,4.2590625 C15.6059412,4.59571554 15.6153217,5.00507336 15.8147642,5.33293481 C16.0142068,5.66079627 16.3734113,5.85735141 16.7570689,5.84855982 C17.1407266,5.83976823 17.4905506,5.62696555 17.6747656,5.2903125 L19.6719531,1.83046875 C19.6907171,1.7991063 19.7076466,1.76668208 19.7226562,1.73335938 L19.7226562,1.7290625 C19.7321094,1.7084375 19.7415625,1.68695313 19.7492969,1.66546875 L19.765625,1.6328125 L19.7707812,1.61734375 C19.7759375,1.60359375 19.7802344,1.58898438 19.7845313,1.57523438 C19.7888281,1.56148438 19.7845313,1.55890625 19.7914063,1.55117188 C19.7930073,1.54333832 19.7950153,1.53559346 19.7974219,1.52796875 C19.7974219,1.51765625 19.7974219,1.50734375 19.8042969,1.49789063 C19.8111719,1.4884375 19.8042969,1.48328125 19.8085938,1.47640625 L19.8163281,1.43515625 L19.8163281,1.41796875 L19.8214844,1.37328125 C19.8214844,1.37328125 19.8214844,1.36898438 19.8214844,1.36726563 C19.8214844,1.35007813 19.8214844,1.33289063 19.8214844,1.31570313 L19.8214844,1.3028125 C19.8214844,1.28476563 19.8214844,1.26757813 19.8214844,1.24953125 C19.8219661,0.609377496 19.304911,0.0892492756 18.6647656,0.0859375 Z" id="Path" fill="#FFFFFF"></path>
                <path d="M12.5279688,5.17171875 C12.4334105,5.01112119 12.2605836,4.91292412 12.0742188,4.91390625 L8.12109375,4.91390625 C7.93472886,4.91292412 7.761902,5.01112119 7.66734375,5.17171875 C7.57331954,5.33350292 7.57331954,5.53329395 7.66734375,5.69507813 L9.64390625,9.12140625 C9.73737503,9.28341016 9.91019266,9.38322073 10.0972266,9.38322073 C10.2842605,9.38322073 10.4570781,9.28341016 10.5505469,9.12140625 L12.5271094,5.69507812 C12.6211336,5.53329395 12.6211336,5.33350292 12.5271094,5.17171875 L12.5279688,5.17171875 Z" id="Path" fill="url(#linearGradient-4)"></path>
            </g>
        </g>
    </g>
</svg>